<?xml version="1.0" standalone="no"?>
<!DOCTYPE svg PUBLIC "-//W3C//DTD SVG 20010904//EN"
 "http://www.w3.org/TR/2001/REC-SVG-20010904/DTD/svg10.dtd">
<svg version="1.0" xmlns="http://www.w3.org/2000/svg"
 width="480.000000pt" height="480.000000pt" viewBox="0 0 480.000000 480.000000"
 preserveAspectRatio="xMidYMid meet">

<g transform="translate(0.000000,480.000000) scale(0.100000,-0.100000)"
fill="#000000" stroke="none">
<path d="M2125 4042 c-33 -11 -53 -25 -60 -41 -10 -23 -11 -23 -125 -16 l-116
6 -49 -34 c-41 -28 -57 -33 -88 -29 -52 6 -118 -21 -165 -68 -37 -38 -42 -39
-131 -48 -101 -10 -141 -33 -141 -79 0 -18 -9 -28 -34 -38 -43 -18 -121 -89
-153 -138 -16 -25 -41 -46 -78 -64 -66 -30 -109 -77 -102 -109 3 -18 -6 -29
-45 -54 -45 -30 -78 -72 -78 -102 0 -8 -13 -22 -30 -31 -21 -13 -31 -28 -35
-55 -4 -20 -18 -64 -32 -97 -15 -33 -28 -80 -31 -105 l-4 -45 -72 3 c-93 5
-128 -17 -174 -107 -52 -104 -41 -180 35 -238 29 -23 47 -28 89 -28 l53 0 -4
-35 c-3 -19 -12 -82 -20 -139 -23 -158 -20 -217 10 -246 13 -14 28 -25 32 -25
4 0 8 -39 8 -87 0 -75 4 -94 23 -125 17 -27 31 -38 48 -38 21 0 24 -5 25 -40
1 -22 3 -44 4 -50 1 -5 3 -17 4 -24 0 -8 12 -27 26 -42 14 -15 29 -43 35 -64
10 -37 32 -62 83 -93 18 -12 27 -26 27 -44 0 -40 37 -92 73 -101 20 -5 37 -20
50 -42 41 -75 120 -140 171 -140 19 0 29 -10 46 -45 12 -24 35 -59 51 -76 28
-30 32 -31 88 -26 l59 5 36 -43 c20 -25 59 -55 91 -71 47 -23 60 -25 81 -15
38 17 48 14 123 -34 69 -44 122 -58 137 -34 4 7 16 1 33 -15 50 -48 136 -70
181 -46 15 8 27 4 56 -15 33 -23 73 -32 114 -26 20 2 280 2 300 0 41 -6 81 3
114 26 29 19 41 23 56 15 43 -23 131 1 186 52 14 13 24 16 29 9 17 -28 93 0
182 66 31 23 34 23 63 8 29 -15 35 -15 77 1 25 10 68 40 97 68 50 49 52 50
114 51 57 0 65 3 88 30 14 17 34 49 45 72 16 34 25 43 45 43 14 0 38 7 53 15
33 17 121 113 121 133 0 7 20 21 44 32 49 21 76 59 76 109 0 25 6 33 33 45 43
17 77 61 77 97 0 19 8 34 25 45 27 18 45 69 44 124 0 39 -5 31 -30 -50 -9 -29
-22 -49 -36 -55 -13 -5 -23 -18 -23 -28 0 -30 -36 -91 -68 -114 -19 -14 -36
-40 -47 -72 -12 -38 -25 -55 -53 -73 -20 -12 -41 -28 -45 -35 -18 -30 -114
-125 -138 -138 -14 -8 -35 -11 -47 -9 -16 5 -24 -2 -40 -38 -27 -61 -71 -98
-122 -105 -27 -4 -45 -2 -49 6 -5 7 -25 -6 -60 -39 -71 -68 -143 -105 -181
-92 -23 9 -39 4 -111 -35 -70 -37 -90 -44 -120 -39 -28 4 -40 1 -54 -14 -30
-33 -99 -54 -156 -47 -38 5 -57 2 -75 -10 -36 -23 -99 -32 -145 -21 -26 7 -43
7 -52 0 -6 -6 -39 -8 -72 -6 -70 5 -104 6 -162 4 -27 -1 -61 7 -89 20 -37 18
-50 20 -70 11 -39 -17 -140 13 -172 52 -9 10 -25 13 -57 9 -32 -3 -51 0 -63
10 -9 8 -43 29 -74 47 -53 29 -61 31 -91 21 -29 -11 -37 -9 -85 19 -29 17 -74
51 -99 76 -50 49 -53 51 -53 31 0 -11 -10 -12 -47 -5 -56 11 -98 46 -125 107
-16 36 -24 43 -40 38 -12 -2 -33 1 -47 9 -23 11 -91 79 -142 141 -9 10 -30 26
-47 36 -22 12 -34 29 -44 59 -7 25 -28 59 -49 79 -40 39 -69 89 -69 118 0 11
-9 22 -20 25 -24 6 -48 59 -57 122 -5 39 -9 45 -29 45 -40 0 -58 50 -60 163
-1 93 -3 100 -24 110 -27 14 -42 58 -35 102 12 71 34 256 40 330 8 104 43 274
61 303 14 21 15 22 52 6 20 -9 68 -25 105 -35 37 -10 71 -21 76 -23 5 -3 40
-10 77 -16 81 -11 152 -40 369 -146 224 -110 274 -131 331 -139 48 -7 196 -70
202 -86 2 -5 7 -9 12 -9 4 0 32 -16 61 -36 65 -44 143 -80 194 -90 l37 -7 -39
-21 c-26 -15 -47 -38 -67 -77 -41 -77 -33 -115 35 -169 56 -44 122 -67 222
-76 l68 -6 -6 -41 c-4 -23 -12 -53 -19 -67 -18 -39 -73 -70 -122 -70 -24 0
-44 -4 -44 -9 0 -17 33 -21 90 -12 52 8 94 38 114 82 5 12 7 12 12 0 20 -44
62 -74 114 -82 57 -9 90 -5 90 12 0 5 -20 9 -44 9 -49 0 -104 31 -123 71 -7
14 -13 45 -15 68 l-3 44 65 4 c36 2 88 11 115 20 64 20 139 75 155 112 24 59
-13 143 -79 180 l-42 23 69 24 c61 20 206 98 232 124 20 20 135 70 181 78 78
15 180 57 372 155 92 47 191 93 220 102 28 9 60 20 69 26 10 5 33 9 52 9 36 0
92 15 224 60 l83 29 13 -22 c8 -12 17 -38 21 -57 3 -19 12 -62 20 -95 8 -33
17 -98 20 -145 4 -47 14 -137 23 -200 20 -140 19 -206 -4 -231 -9 -11 -22 -19
-28 -19 -7 0 -11 -34 -11 -98 -1 -116 -18 -162 -63 -162 -26 -1 -26 -1 -8 -15
24 -18 50 -5 73 38 12 23 17 58 18 121 1 81 3 90 22 97 38 14 46 45 39 147 -4
51 -11 114 -16 140 -5 26 -11 71 -15 99 l-6 53 30 -6 c38 -8 92 10 130 44 61
54 67 127 19 223 -46 90 -81 112 -174 107 -66 -3 -72 -2 -72 17 0 34 -22 103
-44 142 -12 20 -21 50 -20 66 2 22 -6 37 -33 62 -19 19 -35 39 -35 46 0 25
-41 75 -83 102 -35 22 -43 33 -40 51 7 33 -40 83 -103 111 -37 16 -60 35 -77
62 -27 43 -117 122 -159 141 -20 8 -28 19 -28 36 0 51 -39 70 -162 81 -70 5
-88 10 -93 24 -3 10 -27 33 -53 52 -42 30 -54 34 -114 35 -54 0 -72 4 -90 21
-46 41 -64 45 -182 38 l-112 -7 -12 26 c-7 15 -23 28 -39 32 -15 3 -40 10 -55
16 -29 11 -132 4 -205 -14 -29 -7 -52 -7 -75 1 -64 20 -179 22 -233 3z m493
-1807 c23 -8 30 -31 10 -37 -6 -2 -43 0 -82 5 -74 9 -328 3 -358 -8 -12 -5
-20 -1 -24 9 -9 23 -6 24 57 35 58 11 359 7 397 -4z"/>
<path d="M1223 2448 c-46 -22 -84 -161 -64 -236 21 -76 89 -104 137 -57 44 44
64 102 64 187 0 71 -2 78 -26 97 -29 23 -75 26 -111 9z m49 -55 c25 -23 23
-50 -7 -69 -24 -16 -27 -16 -45 1 -24 22 -25 43 -3 67 20 22 31 23 55 1z m-42
-114 c0 -12 -7 -19 -20 -19 -22 0 -29 35 -7 43 18 6 27 -2 27 -24z"/>
<path d="M3462 2435 c-41 -52 -36 -156 11 -240 44 -78 108 -84 155 -15 21 31
23 42 17 95 -10 90 -25 134 -58 161 -40 33 -98 33 -125 -1z m123 -45 c20 -23
14 -64 -11 -74 -21 -8 -64 19 -64 41 0 20 28 53 45 53 7 0 20 -9 30 -20z m21
-95 c4 -8 4 -22 0 -30 -7 -19 -36 -8 -36 14 0 32 26 43 36 16z"/>
<path d="M1543 1979 c257 -45 313 -52 295 -34 -8 8 -425 73 -508 79 -41 3 55
-17 213 -45z"/>
<path d="M3340 2010 c-166 -22 -295 -44 -420 -71 -114 -24 -125 -28 -117 -36
4 -3 59 4 124 16 65 12 231 41 368 65 259 46 279 57 45 26z"/>
<path d="M1856 1932 c-5 -9 86 -32 126 -32 34 0 10 17 -34 24 -24 4 -53 9 -64
12 -12 3 -24 1 -28 -4z"/>
<path d="M1485 1855 c-158 -20 -350 -53 -377 -65 -20 -9 -18 -10 12 -5 80 13
353 46 455 55 142 12 218 13 335 6 71 -4 88 -3 65 4 -51 18 -367 21 -490 5z"/>
<path d="M2877 1859 c-105 -12 -95 -23 13 -15 97 8 298 8 310 1 4 -2 78 -11
166 -20 87 -9 199 -22 248 -30 49 -8 91 -13 94 -11 5 5 -120 32 -208 46 -239
36 -473 47 -623 29z"/>
<path d="M1910 1770 c-206 -38 -407 -103 -575 -186 -49 -24 -101 -54 -115 -65
l-25 -20 25 11 c59 27 96 45 108 54 8 6 35 18 60 27 226 84 270 100 287 104
11 2 58 13 105 24 47 10 120 26 163 36 42 9 77 21 77 26 0 11 8 12 -110 -11z"/>
<path d="M2780 1781 c0 -5 26 -15 58 -21 46 -9 205 -46 282 -64 81 -20 302
-106 405 -159 44 -22 74 -33 67 -25 -20 24 -226 123 -341 162 -120 42 -227 70
-343 91 -46 9 -93 18 -105 20 -13 3 -23 1 -23 -4z"/>
</g>
</svg>
